HIERARCHY
ROOT newVegas:Hips
{
	OFFSET 0.000000 96.479958 0.000000
	CHANNELS 6 Xposition Yposition Zposition Xrotation Yrotation Zrotation
	JOINT newVegas:Pelvis
	{
		OFFSET 0.000000 0.000000 0.000000
		CHANNELS 3 Xrotation Yrotation Zrotation
		JOINT newVegas:LeftUpLeg
		{
			OFFSET 18.735201 -5.666702 -4.541200
			CHANNELS 3 Xrotation Yrotation Zrotation
			JOINT newVegas:LeftLeg
			{
				OFFSET -0.021200 -31.938179 0.493100
				CHANNELS 3 Xrotation Yrotation Zrotation
				JOINT newVegas:LeftFoot
				{
					OFFSET 0.021200 -31.938179 -4.336299
					CHANNELS 3 Xrotation Yrotation Zrotation
					JOINT newVegas:LeftToeBase
					{
						OFFSET 0.943001 -26.722000 15.023500
						CHANNELS 3 Xrotation Yrotation Zrotation
						End Site
						{
							OFFSET 0.000000 30.670183 0.000000
						}
					}
				}
				JOINT newVegas:Left_PantLeg
				{
					OFFSET 0.663870 -9.044666 -1.108900
					CHANNELS 3 Xrotation Yrotation Zrotation
					End Site
					{
						OFFSET 1.415995 20.635357 0.000000
					}
				}
			}
		}
		JOINT newVegas:RightUpLeg
		{
			OFFSET -18.735201 -5.666702 -4.541200
			CHANNELS 3 Xrotation Yrotation Zrotation
			JOINT newVegas:RightLeg
			{
				OFFSET 0.018946 -31.938133 0.493100
				CHANNELS 3 Xrotation Yrotation Zrotation
				JOINT newVegas:RightFoot
				{
					OFFSET -0.018946 -31.938126 -4.336299
					CHANNELS 3 Xrotation Yrotation Zrotation
					JOINT newVegas:RightToeBase
					{
						OFFSET -0.943001 -26.722004 15.023500
						CHANNELS 3 Xrotation Yrotation Zrotation
						End Site
						{
							OFFSET 0.000000 30.670187 0.000000
						}
					}
				}
				JOINT newVegas:Right_PantLeg
				{
					OFFSET -0.661674 -9.044716 -1.108900
					CHANNELS 3 Xrotation Yrotation Zrotation
					End Site
					{
						OFFSET -1.415958 20.635269 0.000000
					}
				}
			}
		}
	}
	JOINT newVegas:Spine
	{
		OFFSET 0.000000 10.199997 -0.299500
		CHANNELS 3 Xrotation Yrotation Zrotation
		JOINT newVegas:Spine1
		{
			OFFSET 0.000000 11.900002 -1.516600
			CHANNELS 3 Xrotation Yrotation Zrotation
			JOINT newVegas:Spine2
			{
				OFFSET 0.000000 13.600006 -2.842500
				CHANNELS 3 Xrotation Yrotation Zrotation
				JOINT newVegas:Neck
				{
					OFFSET 0.000000 9.624100 -2.890100
					CHANNELS 3 Xrotation Yrotation Zrotation
					JOINT newVegas:Head
					{
						OFFSET 0.000000 14.068802 -1.351900
						CHANNELS 3 Xrotation Yrotation Zrotation
						JOINT newVegas:Hair_Back
						{
							OFFSET 0.000000 3.231903 -17.524799
							CHANNELS 3 Xrotation Yrotation Zrotation
							End Site
							{
								OFFSET 0.000000 19.849884 0.000000
							}
						}
						JOINT newVegas:Hair_Front
						{
							OFFSET 0.000000 31.260406 4.573800
							CHANNELS 3 Xrotation Yrotation Zrotation
							JOINT newVegas:Hair_Front1
							{
								OFFSET 0.000000 2.284103 11.993300
								CHANNELS 3 Xrotation Yrotation Zrotation
								JOINT newVegas:Hair_Front2
								{
									OFFSET 0.000000 2.284103 11.993300
									CHANNELS 3 Xrotation Yrotation Zrotation
									End Site
									{
										OFFSET 0.000000 12.208862 0.000000
									}
								}
							}
						}
						JOINT newVegas:Jowel
						{
							OFFSET 0.000000 -7.458206 6.864100
							CHANNELS 3 Xrotation Yrotation Zrotation
							End Site
							{
								OFFSET 0.000000 19.849884 0.000000
							}
						}
					}
				}
				JOINT newVegas:LeftShoulder
				{
					OFFSET 15.263000 10.923401 -0.547700
					CHANNELS 3 Xrotation Yrotation Zrotation
					JOINT newVegas:LeftArm
					{
						OFFSET 25.438599 -2.830597 -13.032500
						CHANNELS 3 Xrotation Yrotation Zrotation
						JOINT newVegas:LeftForeArm
						{
							OFFSET 29.960503 0.000000 0.000000
							CHANNELS 3 Xrotation Yrotation Zrotation
							JOINT newVegas:LeftHand
							{
								OFFSET 27.849251 0.000000 0.000000
								CHANNELS 3 Xrotation Yrotation Zrotation
								JOINT newVegas:LeftHandThumb1
								{
									OFFSET 4.487587 -3.305161 6.305391
									CHANNELS 3 Xrotation Yrotation Zrotation
									JOINT newVegas:LeftHandThumb2
									{
										OFFSET 5.480453 -3.164139 3.164143
										CHANNELS 3 Xrotation Yrotation Zrotation
										JOINT newVegas:LeftHandThumb3
										{
											OFFSET 5.159721 -2.978973 2.978967
											CHANNELS 3 Xrotation Yrotation Zrotation
											End Site
											{
												OFFSET 2.494507 5.926697 1.738678
											}
										}
									}
								}
								JOINT newVegas:LeftHandIndex1
								{
									OFFSET 18.578728 -0.527832 5.208049
									CHANNELS 3 Xrotation Yrotation Zrotation
									JOINT newVegas:LeftHandIndex2
									{
										OFFSET 3.192009 0.000000 0.000000
										CHANNELS 3 Xrotation Yrotation Zrotation
										JOINT newVegas:LeftHandIndex3
										{
											OFFSET 3.835129 0.000000 0.000000
											CHANNELS 3 Xrotation Yrotation Zrotation
											End Site
											{
												OFFSET -0.034599 3.816971 0.371180
											}
										}
									}
								}
								JOINT newVegas:LeftHandMiddle1
								{
									OFFSET 18.476105 0.000000 0.000000
									CHANNELS 3 Xrotation Yrotation Zrotation
									JOINT newVegas:LeftHandMiddle2
									{
										OFFSET 3.324875 0.000000 0.000000
										CHANNELS 3 Xrotation Yrotation Zrotation
										JOINT newVegas:LeftHandMiddle3
										{
											OFFSET 4.596550 0.000000 0.000000
											CHANNELS 3 Xrotation Yrotation Zrotation
											End Site
											{
												OFFSET 0.057701 4.578827 0.399218
											}
										}
									}
								}
								JOINT newVegas:LeftHandRing1
								{
									OFFSET 17.732719 0.121887 -4.201567
									CHANNELS 3 Xrotation Yrotation Zrotation
									JOINT newVegas:LeftHandRing2
									{
										OFFSET 2.733170 0.000000 0.000000
										CHANNELS 3 Xrotation Yrotation Zrotation
										JOINT newVegas:LeftHandRing3
										{
											OFFSET 3.178268 0.000000 0.000000
											CHANNELS 3 Xrotation Yrotation Zrotation
											End Site
											{
												OFFSET 0.119102 3.170624 0.185394
											}
										}
									}
								}
								JOINT newVegas:LeftHandPinky1
								{
									OFFSET 15.989624 -0.606689 -7.535461
									CHANNELS 3 Xrotation Yrotation Zrotation
									JOINT newVegas:LeftHandPinky2
									{
										OFFSET 2.538986 0.000000 0.000000
										CHANNELS 3 Xrotation Yrotation Zrotation
										JOINT newVegas:LeftHandPinky3
										{
											OFFSET 2.593102 0.000000 0.000000
											CHANNELS 3 Xrotation Yrotation Zrotation
											End Site
											{
												OFFSET -0.150902 2.584198 0.152708
											}
										}
									}
								}
							}
							JOINT newVegas:Left_Sleeve
							{
								OFFSET 0.267448 -0.649796 0.577675
								CHANNELS 3 Xrotation Yrotation Zrotation
								End Site
								{
									OFFSET 0.000000 15.991241 0.000000
								}
							}
							JOINT newVegas:Left_CapeC
							{
								OFFSET 15.715958 -8.608795 -6.935905
								CHANNELS 3 Xrotation Yrotation Zrotation
								JOINT newVegas:Left_CapeC1
								{
									OFFSET 0.000000 -8.688499 0.000000
									CHANNELS 3 Xrotation Yrotation Zrotation
									End Site
									{
										OFFSET 0.000000 8.688499 0.000000
									}
								}
							}
						}
						JOINT newVegas:Left_CapeB
						{
							OFFSET 26.118385 -8.608795 -7.079235
							CHANNELS 3 Xrotation Yrotation Zrotation
							JOINT newVegas:Left_CapeB1
							{
								OFFSET 0.000000 -8.688499 0.000000
								CHANNELS 3 Xrotation Yrotation Zrotation
								End Site
								{
									OFFSET 0.000000 8.688499 0.000000
								}
							}
						}
						JOINT newVegas:Left_CapeA
						{
							OFFSET 5.115639 -8.608795 -10.395809
							CHANNELS 3 Xrotation Yrotation Zrotation
							JOINT newVegas:Left_CapeA1
							{
								OFFSET 0.000000 -8.688499 0.000000
								CHANNELS 3 Xrotation Yrotation Zrotation
								End Site
								{
									OFFSET 0.000000 8.688499 0.000000
								}
							}
						}
					}
				}
				JOINT newVegas:RightShoulder
				{
					OFFSET -15.263000 10.923401 -0.547700
					CHANNELS 3 Xrotation Yrotation Zrotation
					JOINT newVegas:RightArm
					{
						OFFSET -25.438599 -2.830597 -13.032500
						CHANNELS 3 Xrotation Yrotation Zrotation
						JOINT newVegas:RightForeArm
						{
							OFFSET -29.960503 0.000000 0.000000
							CHANNELS 3 Xrotation Yrotation Zrotation
							JOINT newVegas:RightHand
							{
								OFFSET -27.849251 0.000000 0.000000
								CHANNELS 3 Xrotation Yrotation Zrotation
								JOINT newVegas:RightHandThumb1
								{
									OFFSET -4.487587 -3.305161 6.305391
									CHANNELS 3 Xrotation Yrotation Zrotation
									JOINT newVegas:RightHandThumb2
									{
										OFFSET -5.480453 -3.164139 3.164143
										CHANNELS 3 Xrotation Yrotation Zrotation
										JOINT newVegas:RightHandThumb3
										{
											OFFSET -5.159721 -2.978973 2.978967
											CHANNELS 3 Xrotation Yrotation Zrotation
											End Site
											{
												OFFSET -2.494507 5.926697 1.738678
											}
										}
									}
								}
								JOINT newVegas:RightHandIndex1
								{
									OFFSET -18.578728 -0.527832 5.208049
									CHANNELS 3 Xrotation Yrotation Zrotation
									JOINT newVegas:RightHandIndex2
									{
										OFFSET -3.192009 0.000000 0.000000
										CHANNELS 3 Xrotation Yrotation Zrotation
										JOINT newVegas:RightHandIndex3
										{
											OFFSET -3.835129 0.000000 0.000000
											CHANNELS 3 Xrotation Yrotation Zrotation
											End Site
											{
												OFFSET 0.034599 3.816971 0.371180
											}
										}
									}
								}
								JOINT newVegas:RightHandMiddle1
								{
									OFFSET -18.476105 0.000000 0.000000
									CHANNELS 3 Xrotation Yrotation Zrotation
									JOINT newVegas:RightHandMiddle2
									{
										OFFSET -3.324875 0.000000 0.000000
										CHANNELS 3 Xrotation Yrotation Zrotation
										JOINT newVegas:RightHandMiddle3
										{
											OFFSET -4.596550 0.000000 0.000000
											CHANNELS 3 Xrotation Yrotation Zrotation
											End Site
											{
												OFFSET -0.057701 4.578827 0.399218
											}
										}
									}
								}
								JOINT newVegas:RightHandRing1
								{
									OFFSET -17.732719 0.121887 -4.201567
									CHANNELS 3 Xrotation Yrotation Zrotation
									JOINT newVegas:RightHandRing2
									{
										OFFSET -2.733170 0.000000 0.000000
										CHANNELS 3 Xrotation Yrotation Zrotation
										JOINT newVegas:RightHandRing3
										{
											OFFSET -3.178268 0.000000 0.000000
											CHANNELS 3 Xrotation Yrotation Zrotation
											End Site
											{
												OFFSET -0.119102 3.170624 0.185394
											}
										}
									}
								}
								JOINT newVegas:RightHandPinky1
								{
									OFFSET -15.989624 -0.606689 -7.535461
									CHANNELS 3 Xrotation Yrotation Zrotation
									JOINT newVegas:RightHandPinky2
									{
										OFFSET -2.538986 0.000000 0.000000
										CHANNELS 3 Xrotation Yrotation Zrotation
										JOINT newVegas:RightHandPinky3
										{
											OFFSET -2.593102 0.000000 0.000000
											CHANNELS 3 Xrotation Yrotation Zrotation
											End Site
											{
												OFFSET 0.150902 2.584198 0.152708
											}
										}
									}
								}
							}
							JOINT newVegas:Right_CapeC
							{
								OFFSET -15.715958 -8.608795 -6.935905
								CHANNELS 3 Xrotation Yrotation Zrotation
								JOINT newVegas:Right_CapeC1
								{
									OFFSET 0.000000 -8.688499 0.000000
									CHANNELS 3 Xrotation Yrotation Zrotation
									End Site
									{
										OFFSET 0.000000 8.688499 0.000000
									}
								}
							}
							JOINT newVegas:Right_Sleeve
							{
								OFFSET -0.267448 -0.649994 0.577675
								CHANNELS 3 Xrotation Yrotation Zrotation
								End Site
								{
									OFFSET 0.000000 15.991302 0.000000
								}
							}
						}
						JOINT newVegas:Right_CapeA
						{
							OFFSET -5.115540 -8.608795 -10.395824
							CHANNELS 3 Xrotation Yrotation Zrotation
							JOINT newVegas:Right_CapeA1
							{
								OFFSET 0.000000 -8.688499 0.000000
								CHANNELS 3 Xrotation Yrotation Zrotation
								End Site
								{
									OFFSET 0.000000 8.688499 0.000000
								}
							}
						}
						JOINT newVegas:Right_CapeB
						{
							OFFSET -26.118187 -8.608795 -7.079266
							CHANNELS 3 Xrotation Yrotation Zrotation
							JOINT newVegas:Right_CapeB1
							{
								OFFSET 0.000000 -8.688499 0.000000
								CHANNELS 3 Xrotation Yrotation Zrotation
								End Site
								{
									OFFSET 0.000000 8.688499 0.000000
								}
							}
						}
					}
				}
				JOINT newVegas:Left_Collar
				{
					OFFSET 18.625099 8.655502 8.828100
					CHANNELS 3 Xrotation Yrotation Zrotation
					JOINT newVegas:Left_Collar1
					{
						OFFSET 14.783401 10.540405 -1.259500
						CHANNELS 3 Xrotation Yrotation Zrotation
						End Site
						{
							OFFSET 0.000000 18.199875 0.000000
						}
					}
				}
				JOINT newVegas:Collar_Back
				{
					OFFSET 0.000000 15.630707 -20.132601
					CHANNELS 3 Xrotation Yrotation Zrotation
					End Site
					{
						OFFSET 0.000000 22.523010 0.000000
					}
				}
				JOINT newVegas:Left_Peck
				{
					OFFSET 17.239599 -5.132599 25.482599
					CHANNELS 3 Xrotation Yrotation Zrotation
					End Site
					{
						OFFSET 0.000000 22.523010 0.000000
					}
				}
				JOINT newVegas:Right_Peck
				{
					OFFSET -17.239599 -5.132202 25.482599
					CHANNELS 3 Xrotation Yrotation Zrotation
					End Site
					{
						OFFSET 0.000000 22.523010 0.000000
					}
				}
				JOINT newVegas:Right_Collar
				{
					OFFSET -18.625099 8.655792 8.828100
					CHANNELS 3 Xrotation Yrotation Zrotation
					JOINT newVegas:Right_Collar1
					{
						OFFSET -14.783401 10.539993 -1.259500
						CHANNELS 3 Xrotation Yrotation Zrotation
						End Site
						{
							OFFSET 0.000000 18.199631 0.000000
						}
					}
				}
			}
		}
		JOINT newVegas:Belly
		{
			OFFSET 0.000000 -6.540398 9.014299
			CHANNELS 3 Xrotation Yrotation Zrotation
			End Site
			{
				OFFSET 0.000000 11.566666 0.000000
			}
		}
	}
	JOINT newVegas:ElvisFacialAnim_Joint
	{
		OFFSET 1.000000 -95.330101 -8.825800
		CHANNELS 3 Xrotation Yrotation Zrotation
		End Site
		{
			OFFSET 0.000000 35.315800 0.000000
		}
	}
}
MOTION
Frames: 4
Frame Time: 0.016667
-2.784041 87.823151 2.836773 -6.078106 -42.937960 -3.789153 -0.000000 -0.000001 -0.000000 -34.382715 2.797548 16.536477 38.554919 -14.780080 -0.466879 -1.768594 0.957432 -10.955042 0.000000 0.000001 -0.000000 0.000000 0.000001 -0.000000 1.092598 -13.635790 -18.500076 33.754781 -7.693373 -0.145382 -25.573852 -6.507766 21.331813 0.000000 0.000000 -0.000000 -0.000001 -0.000001 0.000000 5.850732 4.525925 -1.455237 11.836540 9.037617 -3.083968 11.836539 9.037615 -3.083969 -1.982213 -0.276599 0.110074 -1.982220 -0.276604 0.110079 -0.000002 0.000001 0.000000 -1.982216 -0.276594 0.110074 -1.982209 -0.276614 0.110079 -0.000002 -0.000002 0.000000 -0.000002 0.000001 -0.000000 1.396588 -0.734470 -7.859328 -14.236648 2.407736 -63.256793 9.875217 -47.538376 5.912044 16.118533 0.922161 18.828757 9.163600 4.814104 -5.499028 -0.335370 0.032562 0.783669 0.000001 -0.000001 0.000001 -0.902013 -6.980961 -3.808426 0.033408 0.804250 -16.418982 0.000002 0.000001 -0.000003 1.947856 9.683065 -14.539813 -0.456434 -1.565411 -21.881008 0.000002 -0.000002 0.000000 2.605868 14.896807 -31.345278 -0.576846 -2.712408 -32.011536 0.000004 0.000001 0.000001 4.170569 18.495037 -34.987347 -0.706792 -5.788638 -39.372923 0.000000 -0.000003 0.000002 -0.000002 0.000001 -0.000001 -0.000002 0.000001 -0.000001 -0.000003 0.000001 -0.000001 0.000002 0.000000 0.000002 0.000003 0.000000 0.000000 0.000002 0.000000 0.000002 0.000001 -0.000001 0.000002 1.410915 9.461491 9.792765 1.220065 -24.270690 60.532866 -6.660697 41.858435 8.043900 6.225213 12.322292 11.673245 -8.898172 -4.908929 -0.379254 7.904824 -19.192476 -2.856865 -0.000000 0.000000 0.000003 -1.085505 -1.215485 4.525260 0.142011 -1.115587 16.942614 -0.000001 0.000000 -0.000000 -0.668338 -2.904954 12.731533 -0.667288 1.816598 30.578781 0.000001 -0.000001 -0.000000 2.423631 -7.404546 21.763290 -0.987216 3.763006 37.431192 -0.000001 0.000002 0.000001 3.480597 -10.053116 24.322312 -1.457033 7.871411 41.091979 0.000000 -0.000005 0.000001 -0.000000 -0.000001 0.000000 -0.000002 -0.000001 0.000002 -0.000000 -0.000001 0.000000 0.000002 -0.000001 -0.000000 0.000002 0.000000 0.000000 0.000002 -0.000001 -0.000000 0.000002 -0.000000 -0.000000 0.000000 0.000000 -0.000000 0.000000 0.000000 -0.000000 0.000000 0.000000 -0.000000 0.000000 0.000000 -0.000000 0.000000 0.000000 -0.000000 0.000000 0.000000 -0.000000 0.000000 0.000000 -0.000000 0.000000 -0.000002 -0.000000 -0.000000 -0.000001 -0.000000 
-2.524050 87.502014 2.547937 -4.939920 -43.700510 -3.057210 -0.000000 0.000002 -0.000000 -35.862140 2.806828 16.827826 39.408699 -14.436269 -0.427667 -1.920074 1.007953 -11.037650 -0.000000 -0.000002 0.000000 0.000000 -0.000001 -0.000000 -1.067580 -11.253431 -18.239137 36.044971 -9.248917 -0.339396 -26.017224 -6.476575 21.962473 0.000000 -0.000000 0.000000 0.000001 0.000003 -0.000003 5.946808 4.426635 -1.392210 12.025232 8.854457 -2.993142 12.025229 8.854468 -2.993144 -2.156000 -0.072884 0.203310 -2.156007 -0.072876 0.203305 -0.000000 -0.000001 -0.000000 -2.155928 -0.072881 0.203306 -2.156063 -0.072874 0.203307 0.000001 -0.000000 0.000001 -0.000000 -0.000001 0.000001 0.965637 -1.032579 -7.966039 -15.103287 0.865217 -62.925119 10.783034 -44.898163 6.185712 16.918920 -0.292557 19.627080 9.349426 4.758716 -5.687993 -0.198636 0.325435 0.830093 0.000002 -0.000001 -0.000004 -1.019734 -6.725080 -5.312750 -0.024108 0.621119 -18.002340 0.000000 -0.000000 -0.000001 2.038161 9.433250 -15.807843 -0.518302 -1.712256 -23.341914 -0.000003 -0.000001 0.000002 2.629695 14.587911 -32.393805 -0.622574 -2.782459 -33.387044 0.000003 -0.000000 -0.000003 4.065090 18.024528 -36.188822 -0.726381 -5.810875 -40.750387 -0.000001 -0.000000 0.000004 0.000000 -0.000000 -0.000001 0.000000 -0.000000 -0.000001 -0.000001 0.000000 -0.000001 0.000001 0.000001 0.000001 0.000002 0.000000 0.000001 0.000001 0.000001 0.000001 0.000002 0.000001 0.000001 0.953481 9.999495 9.272299 0.949930 -23.054614 60.574550 -5.823123 42.180844 7.329613 6.263653 12.051176 10.451376 -8.629383 -4.893357 -0.125873 7.913482 -19.223981 -2.860414 0.000001 -0.000002 -0.000001 -1.072000 -1.312172 5.663816 0.107975 -1.008042 18.067633 0.000000 0.000000 -0.000000 -0.667780 -2.883303 13.714687 -0.713126 1.892769 31.570972 -0.000001 0.000000 -0.000002 2.379258 -7.310024 22.637146 -1.035012 3.824178 38.329492 -0.000000 0.000001 0.000002 3.381064 -9.859289 25.095522 -1.498513 7.918873 41.906489 0.000001 -0.000002 -0.000000 0.000003 0.000000 -0.000002 0.000003 0.000000 -0.000002 0.000003 -0.000000 -0.000001 0.000001 0.000000 -0.000001 0.000001 0.000001 -0.000000 0.000001 0.000000 -0.000001 0.000001 0.000001 -0.000001 0.000000 0.000000 0.000000 0.000000 0.000000 0.000000 0.000000 0.000000 0.000000 0.000000 0.000000 0.000000 0.000000 0.000000 0.000000 0.000000 0.000000 0.000000 0.000000 0.000000 0.000000 -0.000000 -0.000003 0.000000 -0.000000 0.000002 -0.000000 
-2.052952 87.007744 2.124392 -3.042748 -44.448382 -1.592590 -0.000000 -0.000001 -0.000000 -38.135050 2.759440 16.831678 40.297843 -13.928407 -0.369457 -1.785174 1.033989 -11.135715 -0.000000 0.000001 -0.000000 -0.000001 0.000003 -0.000001 -4.597539 -8.554528 -18.267114 39.525895 -10.696731 -0.535016 -26.686461 -6.467856 22.640696 -0.000000 0.000001 0.000000 0.000002 -0.000001 0.000000 6.046370 4.256798 -1.352424 12.224172 8.528398 -2.981038 12.224170 8.528399 -2.981036 -2.539981 0.154644 0.233628 -2.539980 0.154637 0.233633 -0.000001 0.000001 0.000000 -2.539978 0.154635 0.233632 -2.539983 0.154652 0.233628 0.000000 0.000000 -0.000000 -0.000001 0.000001 -0.000000 0.265573 -1.356440 -8.721384 -15.849135 -0.272484 -61.599120 11.914433 -42.970650 5.909666 17.937612 -1.587062 20.477134 9.860289 4.600695 -6.210169 0.178207 1.135724 0.954694 0.000001 -0.000002 0.000000 -1.259479 -6.014159 -9.465734 -0.209151 0.123939 -22.380652 -0.000001 -0.000002 -0.000001 2.249221 8.742705 -19.308588 -0.708689 -2.109438 -27.382304 -0.000003 -0.000001 -0.000001 2.646804 13.741491 -35.282671 -0.757569 -2.970197 -37.190510 0.000001 -0.000001 -0.000001 3.684841 16.759102 -39.492663 -0.783272 -5.869802 -44.559089 0.000001 0.000000 -0.000004 0.000001 0.000000 -0.000000 0.000001 0.000000 -0.000000 -0.000000 0.000000 -0.000000 0.000001 0.000001 0.000003 0.000001 0.000001 0.000001 0.000001 0.000001 0.000003 -0.000001 0.000002 0.000003 0.311098 10.730826 8.924908 0.830474 -21.973979 60.244536 -4.994660 43.080001 7.063709 6.221343 11.810334 8.625588 -7.878572 -4.840428 0.584297 7.937761 -19.312210 -2.870385 0.000002 -0.000003 -0.000001 -1.004371 -1.581457 8.851896 0.001591 -0.710718 21.217815 0.000000 0.000001 -0.000001 -0.662312 -2.824119 16.467576 -0.848400 2.101727 34.349779 0.000002 0.000000 0.000001 2.247680 -7.051089 25.083673 -1.173865 3.991418 40.845153 -0.000001 -0.000001 -0.000001 3.080878 -9.327132 27.258571 -1.618326 8.048625 44.187789 -0.000000 -0.000002 -0.000000 0.000002 0.000000 -0.000001 0.000000 -0.000000 -0.000001 0.000002 0.000000 0.000001 -0.000003 -0.000003 -0.000002 -0.000003 -0.000003 -0.000001 -0.000003 -0.000003 -0.000002 -0.000003 -0.000003 -0.000003 0.000001 0.000001 -0.000001 0.000001 0.000001 -0.000001 0.000001 0.000001 -0.000001 0.000001 0.000001 -0.000001 0.000001 0.000001 -0.000001 0.000001 0.000001 -0.000001 0.000001 0.000001 -0.000001 0.000000 0.000002 -0.000000 -0.000000 -0.000001 -0.000000 
-1.479029 86.415192 1.619756 -0.810575 -45.193688 0.180425 -0.000000 0.000001 0.000000 -40.766670 2.614788 16.771012 41.282114 -13.305298 -0.302418 -1.556099 1.066689 -11.275187 -0.000000 0.000000 -0.000000 0.000000 -0.000004 0.000000 -8.762322 -6.344221 -18.578016 43.227342 -11.396489 -0.637534 -27.339056 -6.383392 23.172501 0.000000 0.000002 0.000000 0.000000 0.000000 0.000003 6.168664 4.059821 -1.340393 12.470202 8.138661 -3.034283 12.470207 8.138638 -3.034274 -2.973108 0.392800 0.291106 -2.973107 0.392796 0.291106 0.000000 -0.000001 0.000001 -2.973112 0.392806 0.291103 -2.973173 0.392798 0.291110 -0.000002 -0.000002 0.000000 0.000000 -0.000001 0.000000 -0.375964 -1.611366 -9.419203 -16.940408 -1.632617 -60.270450 12.892797 -40.769030 5.492833 19.195891 -3.354582 21.651911 10.623824 4.348441 -6.998083 0.744562 2.361279 1.132680 0.000000 0.000000 -0.000004 -1.386166 -4.956158 -15.725916 -0.554564 -0.599282 -28.997978 0.000001 -0.000000 -0.000000 2.463026 7.707536 -24.585483 -1.048229 -2.681540 -33.490487 -0.000002 0.000001 0.000000 2.540740 12.492689 -39.622549 -0.984463 -3.235781 -42.938298 0.000002 -0.000001 -0.000000 2.877055 14.964226 -44.444471 -0.876356 -5.951412 -50.313427 -0.000001 -0.000003 0.000000 -0.000003 -0.000001 -0.000001 -0.000003 -0.000001 -0.000001 -0.000004 -0.000001 -0.000001 0.000002 0.000001 0.000002 0.000002 0.000001 -0.000000 0.000002 0.000001 0.000002 0.000003 0.000002 0.000001 -0.442266 11.779071 8.775497 0.563405 -20.903027 59.747934 -4.165703 43.767774 6.786848 6.490511 12.058535 6.153622 -6.731238 -4.732393 1.676343 7.975031 -19.447676 -2.885675 0.000000 -0.000001 -0.000002 -0.815438 -1.983360 13.748250 -0.192957 -0.266688 26.056458 0.000002 0.000000 0.000001 -0.642467 -2.735974 20.695292 -1.075442 2.409182 38.618972 -0.000001 -0.000001 0.000006 2.025495 -6.670630 28.840248 -1.401012 4.235912 44.710336 -0.000001 0.000001 0.000001 2.559863 -8.543107 30.575328 -1.812410 8.238366 47.693182 0.000000 0.000003 0.000001 0.000002 -0.000001 0.000000 0.000000 -0.000001 0.000000 0.000002 -0.000000 0.000000 0.000000 0.000005 0.000001 0.000000 0.000006 0.000001 0.000000 0.000005 0.000001 0.000000 0.000006 -0.000000 0.000002 0.000003 -0.000001 0.000002 0.000003 -0.000001 0.000002 0.000003 -0.000001 0.000002 0.000003 -0.000001 0.000002 0.000003 -0.000001 0.000002 0.000003 -0.000001 0.000002 0.000003 -0.000001 -0.000001 0.000001 -0.000000 -0.000000 0.000001 0.000000 
